<?xml version="1.0" encoding="UTF-8" standalone="no"?>
<svg
   xmlns:dc="http://purl.org/dc/elements/1.1/"
   xmlns:cc="http://creativecommons.org/ns#"
   xmlns:rdf="http://www.w3.org/1999/02/22-rdf-syntax-ns#"
   xmlns:svg="http://www.w3.org/2000/svg"
   xmlns="http://www.w3.org/2000/svg"
   viewBox="0 0 1182.2 416.43997"
   height="416.43997"
   width="1182.2"
   xml:space="preserve"
   id="svg2"
   version="1.1"><metadata
     id="metadata8"><rdf:RDF><cc:Work
         rdf:about=""><dc:format>image/svg+xml</dc:format><dc:type
           rdf:resource="http://purl.org/dc/dcmitype/StillImage" /></cc:Work></rdf:RDF></metadata><defs
     id="defs6" /><g
     transform="matrix(1.3333333,0,0,1.3333333,0,7.7443328e-6)"
     id="g10"><g
       id="g12"><path
         id="path14"
         style="fill:#e1251b;fill-opacity:1;fill-rule:nonzero;stroke:none"
         d="m 297.48,238.926 h -70.32 v 21.527 h 48.793 l 0.063,1.117 c -6.578,18.75 -21.645,29.543 -45.414,29.543 -27.465,0 -48.172,-22.004 -48.172,-49.847 0,-28.942 21.562,-51.786 50.152,-51.786 21.914,0 37.5,10.754 46.387,30 l 20.168,-9.3 c -12.465,-27 -36.098,-41.856 -66.555,-41.856 -40.574,0 -72.352,32.055 -72.352,72.973 0,39.832 30.907,71.031 70.372,71.031 20.597,0 36.144,-8.308 47.378,-21.277 l 2.024,16.211 h 17.476 v -66.293 l 0.114,-0.668 h -0.114 z" /><path
         id="path16"
         style="fill:#e1251b;fill-opacity:1;fill-rule:nonzero;stroke:none"
         d="M 297.48,122.469 H 186.27 v -35.5 h 98.402 V 66.391 H 186.27 V 30.898 H 297.48 V 9.75 H 163.613 V 143.617 H 297.48 Z" /><path
         id="path18"
         style="fill:#e1251b;fill-opacity:1;fill-rule:nonzero;stroke:none"
         d="M 111.023,65.07 H 22.656 V 9.75 H 0 V 143.617 H 22.656 V 86.406 h 88.367 v 57.211 h 22.844 V 9.75 h -22.844 z" /><path
         id="path20"
         style="fill:#e1251b;fill-opacity:1;fill-rule:nonzero;stroke:none"
         d="m 78.262,285.891 v -91.192 h 55.605 V 173.363 H 0 v 21.336 h 55.605 v 91.192 H 0 v 21.339 h 133.867 v -21.339 z" /><path
         id="path22"
         style="fill:#e1251b;fill-opacity:1;fill-rule:nonzero;stroke:none"
         d="m 354.969,9.75 h 9.066 l -13.98,38.266 h -8.797 L 327.227,9.75 h 9.386 l 9.235,26.926 z" /><path
         id="path24"
         style="fill:#e1251b;fill-opacity:1;fill-rule:nonzero;stroke:none"
         d="M 371.094,48 V 9.75 h 13.867 c 11.496,0 19.207,7.344 19.207,19.164 0,11.82 -7.711,19.086 -19.262,19.086 z m 13.5,-8.039 c 5.886,0 10.695,-3.406 10.695,-11.063 0,-7.66 -4.809,-11.125 -10.695,-11.125 h -4.957 v 22.204 z" /><path
         id="path26"
         style="fill:#e1251b;fill-opacity:1;fill-rule:nonzero;stroke:none"
         d="M 514.711,48.098 V 32.871 h -15.277 v 15.227 h -8.528 V 9.824 h 8.528 v 15.008 h 15.277 V 9.824 h 8.578 v 38.274 z" /><path
         id="path28"
         style="fill:#e1251b;fill-opacity:1;fill-rule:nonzero;stroke:none"
         d="m 554.488,40.328 h -14.789 l -2.75,7.77 H 528 l 14.414,-38.25 h 9.879 l 14.25,38.25 h -9.293 z m -12,-7.777 h 9.285 l -4.589,-13.223 z" /><path
         id="path30"
         style="fill:#e1251b;fill-opacity:1;fill-rule:nonzero;stroke:none"
         d="M 569.766,34.281 V 9.824 h 8.535 v 23.754 c 0,4.641 2.59,6.969 6.64,6.969 4.047,0 6.637,-2.328 6.637,-6.969 V 9.824 h 8.535 v 24.457 c 0,9.61 -6.75,14.68 -15.172,14.68 -8.425,0 -15.175,-5.07 -15.175,-14.68" /><path
         id="path32"
         style="fill:#e1251b;fill-opacity:1;fill-rule:nonzero;stroke:none"
         d="m 625.266,17.977 v 30.121 h -8.532 V 17.977 H 604.965 V 9.824 h 32.121 v 8.153 z" /><path
         id="path34"
         style="fill:#e1251b;fill-opacity:1;fill-rule:nonzero;stroke:none"
         d="M 642.324,48.098 V 9.824 h 24.238 v 8.039 h -15.71 v 7.293 h 14.257 v 7.508 h -14.257 v 7.34 h 15.761 v 8.094 z" /><path
         id="path36"
         style="fill:#e1251b;fill-opacity:1;fill-rule:nonzero;stroke:none"
         d="M 686.25,48.098 V 9.848 h 24.238 v 8.015 h -15.75 v 7.293 h 14.25 v 7.5 h -14.25 v 7.34 h 15.75 v 8.102 z M 700.359,7.125 h -7.293 L 698.684,0 h 9.75 z" /><path
         id="path38"
         style="fill:#e1251b;fill-opacity:1;fill-rule:nonzero;stroke:none"
         d="m 714.879,29.039 c 0,-11.926 9.066,-20.023 19.754,-20.023 11.496,0 16.574,7.394 17.82,12.898 l -8.047,2.543 c -0.594,-2.648 -3,-7.125 -9.75,-7.125 -5.152,0 -10.906,3.668 -10.906,11.707 0,7.188 5.297,11.34 11.016,11.34 6.64,0 9.285,-4.426 10.035,-7.176 l 8.152,2.317 c -1.234,5.296 -6.312,13.386 -18.187,13.386 -11.016,0 -19.868,-7.933 -19.868,-19.867" /><path
         id="path40"
         style="fill:#e1251b;fill-opacity:1;fill-rule:nonzero;stroke:none"
         d="m 776.094,9 c 10.746,0 19.867,7.828 19.867,19.973 0,12.14 -9.121,19.918 -19.867,19.918 -10.75,0 -19.922,-7.821 -19.922,-19.918 C 756.172,16.875 765.301,9 776.094,9 m 0,31.5 c 5.293,0 11.015,-3.562 11.015,-11.551 0,-7.988 -5.722,-11.601 -11.015,-11.601 -5.297,0 -11.094,3.601 -11.094,11.586 0,7.988 5.723,11.55 11.062,11.55" /><path
         id="path42"
         style="fill:#e1251b;fill-opacity:1;fill-rule:nonzero;stroke:none"
         d="M 802.379,48.098 V 9.824 h 8.535 v 30.121 h 16.516 v 8.153 z" /><path
         id="path44"
         style="fill:#e1251b;fill-opacity:1;fill-rule:nonzero;stroke:none"
         d="M 832.613,48.098 V 9.824 h 24.239 v 8.039 h -15.711 v 7.293 h 14.257 v 7.508 h -14.257 v 7.34 h 15.765 v 8.094 z" /><path
         id="path46"
         style="fill:#e1251b;fill-opacity:1;fill-rule:nonzero;stroke:none"
         d="m 490.898,112.891 v -38.25 h 13.852 c 11.496,0 19.223,7.343 19.223,19.16 0,11.82 -7.727,19.113 -19.274,19.113 z m 13.5,-8.039 c 5.887,0 10.688,-3.407 10.688,-11.071 0,-7.668 -4.801,-11.125 -10.688,-11.125 h -4.964 v 22.196 z" /><path
         id="path48"
         style="fill:#e1251b;fill-opacity:1;fill-rule:nonzero;stroke:none"
         d="m 533.496,74.348 c 3.234,0 5.02,2.648 5.02,5.453 0,7.445 -5.25,10.094 -8.852,10.363 v -3.676 c 1.883,-0.207 4.313,-1.609 4.582,-4.101 -0.375,0.144 -0.777,0.218 -1.184,0.218 -2.355,0.184 -4.332,-1.746 -4.207,-4.101 0,-2.25 1.883,-4.156 4.641,-4.156" /><path
         id="path50"
         style="fill:#e1251b;fill-opacity:1;fill-rule:nonzero;stroke:none"
         d="m 544.777,74.617 h 8.641 v 38.273 h -8.641 z" /><path
         id="path52"
         style="fill:#e1251b;fill-opacity:1;fill-rule:nonzero;stroke:none"
         d="M 586.289,112.891 570.523,87.734 v 25.157 h -8.472 V 74.617 h 10.363 l 14.363,23.266 V 74.617 h 8.528 v 38.274 z" /><path
         id="path54"
         style="fill:#e1251b;fill-opacity:1;fill-rule:nonzero;stroke:none"
         d="m 632.391,112.891 -0.539,-3.887 c -1.672,2.43 -5.293,4.695 -10.747,4.695 -10.605,0 -19.378,-7.82 -19.378,-19.949 0,-12.129 9.125,-19.973 19.918,-19.973 10.957,0 16.035,6.481 17.707,11.821 l -8.204,2.902 c -0.593,-2.379 -3.128,-6.699 -9.503,-6.699 -5.184,0 -11.25,3.461 -11.25,12 0,7.988 5.25,12.152 11.496,12.152 6.25,0 9,-4.101 9.453,-6.262 h -11.528 v -7.238 h 19.5 v 20.461 z" /><path
         id="path56"
         style="fill:#e1251b;fill-opacity:1;fill-rule:nonzero;stroke:none"
         d="m 646.5,112.891 v -38.25 h 24.238 v 8.047 h -15.672 v 7.281 h 14.25 v 7.5 h -14.25 v 7.343 h 15.75 v 8.094 z m 14.176,-40.973 h -7.289 l 5.617,-7.125 h 9.75 z" /><path
         id="path58"
         style="fill:#e1251b;fill-opacity:1;fill-rule:nonzero;stroke:none"
         d="M 702.137,112.891 686.371,87.734 v 25.157 h -8.476 V 74.617 h 10.367 l 14.359,23.266 V 74.617 h 8.527 v 38.274 z" /><path
         id="path60"
         style="fill:#e1251b;fill-opacity:1;fill-rule:nonzero;stroke:none"
         d="m 719.789,74.617 h 8.641 v 38.273 h -8.641 z" /><path
         id="path62"
         style="fill:#e1251b;fill-opacity:1;fill-rule:nonzero;stroke:none"
         d="M 737.062,112.891 V 74.617 h 24.239 v 8.039 H 745.59 v 7.293 h 14.25 v 7.504 h -14.25 v 7.336 h 15.765 v 8.102 z" /><path
         id="path64"
         style="fill:#e1251b;fill-opacity:1;fill-rule:nonzero;stroke:none"
         d="m 780,98.641 h -3 v 14.25 h -8.527 v -38.25 h 15.164 c 7.562,0 12.422,5.183 12.422,12 0.16,4.879 -2.922,9.277 -7.563,10.793 l 7.77,15.492 h -9.387 z m 1.996,-7.344 c 3.508,0 5.399,-1.942 5.399,-4.641 0,-2.859 -1.891,-4.644 -5.399,-4.644 h -5.019 v 9.285 z" /><path
         id="path66"
         style="fill:#e1251b;fill-opacity:1;fill-rule:nonzero;stroke:none"
         d="m 802.648,74.617 h 8.641 v 38.273 h -8.641 z" /><path
         id="path68"
         style="fill:#e1251b;fill-opacity:1;fill-rule:nonzero;stroke:none"
         d="M 819.922,112.891 V 74.617 h 24.242 v 8.039 h -15.715 v 7.293 h 14.258 v 7.504 h -14.258 v 7.336 h 15.766 v 8.102 z" /><path
         id="path70"
         style="fill:#e1251b;fill-opacity:1;fill-rule:nonzero;stroke:none"
         d="M 490.898,177.684 V 139.41 h 24.239 v 8.039 h -15.703 v 7.289 h 14.25 v 7.508 h -14.25 v 7.344 h 15.757 v 8.094 z" /><path
         id="path72"
         style="fill:#e1251b;fill-opacity:1;fill-rule:nonzero;stroke:none"
         d="m 539.16,147.562 v 30.122 h -8.527 v -30.122 h -11.77 v -8.152 h 32.125 v 8.152 z" /><path
         id="path74"
         style="fill:#e1251b;fill-opacity:1;fill-rule:nonzero;stroke:none"
         d="m 567.344,177.684 v -38.25 h 13.906 c 11.504,0 19.223,7.339 19.223,19.16 0,11.82 -7.719,19.109 -19.274,19.109 z m 13.5,-8.043 c 5.89,0 10.687,-3.403 10.687,-11.067 0,-7.668 -4.797,-11.125 -10.687,-11.125 h -4.965 v 22.192 z" /><path
         id="path76"
         style="fill:#e1251b;fill-opacity:1;fill-rule:nonzero;stroke:none"
         d="M 606.969,177.684 V 139.41 h 24.238 v 8.039 h -15.711 v 7.289 h 14.25 v 7.508 h -14.25 v 7.344 h 15.766 v 8.094 z" /><path
         id="path78"
         style="fill:#e1251b;fill-opacity:1;fill-rule:nonzero;stroke:none"
         d="m 679.305,177.684 -0.539,-3.887 c -1.672,2.453 -5.266,4.703 -10.75,4.703 -10.633,0 -19.379,-7.824 -19.379,-19.922 0,-12.094 9.113,-19.976 19.922,-19.976 10.957,0 16.035,6.476 17.707,11.82 l -8.207,2.863 c -0.59,-2.379 -3.125,-6.699 -9.5,-6.699 -5.184,0 -11.25,3.461 -11.25,12 0,7.988 5.25,12.152 11.496,12.152 6.246,0 8.961,-4.101 9.449,-6.261 H 666.75 v -7.239 h 19.5 v 20.461 z" /><path
         id="path80"
         style="fill:#e1251b;fill-opacity:1;fill-rule:nonzero;stroke:none"
         d="M 693.441,177.684 V 139.41 h 24.243 v 8.039 h -15.707 v 7.289 h 14.25 v 7.508 h -14.25 v 7.344 h 15.757 v 8.094 z" /><path
         id="path82"
         style="fill:#e1251b;fill-opacity:1;fill-rule:nonzero;stroke:none"
         d="m 743.648,150.961 c -0.269,-1.777 -1.726,-4.801 -6.367,-4.801 -3.187,0 -5.25,1.996 -5.25,4.102 0,1.84 1.133,3.179 3.75,3.668 l 5.129,0.976 c 7.289,1.348 11.07,6.043 11.07,11.496 0,6 -5.027,12.09 -14.144,12.09 -10.582,0 -15.113,-6.855 -15.652,-12.254 l 7.82,-1.89 c 0.324,3.511 2.699,6.593 7.937,6.593 3.352,0 5.399,-1.621 5.399,-4 0,-1.941 -1.567,-3.343 -4.102,-3.832 l -5.25,-0.972 c -6.48,-1.239 -10.418,-5.559 -10.418,-11.25 0,-7.231 6.368,-12.309 13.711,-12.309 9.555,0 13.168,5.723 13.981,10.199 z" /><path
         id="path84"
         style="fill:#e1251b;fill-opacity:1;fill-rule:nonzero;stroke:none"
         d="m 775.066,147.562 v 30.122 h -8.527 V 147.562 H 754.77 v -8.152 h 32.117 v 8.152 z" /><path
         id="path86"
         style="fill:#e1251b;fill-opacity:1;fill-rule:nonzero;stroke:none"
         d="m 792.129,139.41 h 8.637 v 38.273 h -8.637 z" /><path
         id="path88"
         style="fill:#e1251b;fill-opacity:1;fill-rule:nonzero;stroke:none"
         d="m 827.109,138.602 c 10.739,0 19.868,7.828 19.868,19.972 0,12.141 -9.129,19.926 -19.868,19.926 -10.742,0 -19.921,-7.824 -19.921,-19.922 0,-12.094 9.121,-19.969 19.921,-19.969 m 0,31.5 c 5.25,0 11.008,-3.562 11.008,-11.55 0,-7.989 -5.722,-11.61 -11.008,-11.61 -5.289,0 -11.07,3.621 -11.07,11.61 0,7.988 5.723,11.55 11.07,11.55" /><path
         id="path90"
         style="fill:#e1251b;fill-opacity:1;fill-rule:nonzero;stroke:none"
         d="m 877.637,177.684 -15.766,-25.157 v 25.157 h -8.476 V 139.41 h 10.367 l 14.359,23.266 V 139.41 h 8.527 v 38.274 z" /><path
         id="path92"
         style="fill:#e1251b;fill-opacity:1;fill-rule:nonzero;stroke:none"
         d="m 490.898,242.477 v -38.25 h 13.852 c 11.496,0 19.223,7.339 19.223,19.16 0,11.82 -7.703,19.09 -19.223,19.09 z m 13.5,-8.043 c 5.887,0 10.688,-3.403 10.688,-11.071 0,-7.664 -4.801,-11.113 -10.688,-11.113 h -4.964 v 22.191 z" /><path
         id="path94"
         style="fill:#e1251b;fill-opacity:1;fill-rule:nonzero;stroke:none"
         d="m 530.145,228.66 v -24.457 h 8.535 v 23.75 c 0,4.645 2.586,6.969 6.636,6.969 4.051,0 6.637,-2.324 6.637,-6.969 v -23.75 h 8.531 v 24.457 c 0,9.606 -6.75,14.676 -15.168,14.676 -8.414,0 -15.171,-5.07 -15.171,-14.676" /><path
         id="path96"
         style="fill:#e1251b;fill-opacity:1;fill-rule:nonzero;stroke:none"
         d="m 579.051,223.418 c 0,-11.926 9.078,-20.027 19.765,-20.027 11.496,0 16.567,7.398 17.813,12.902 l -8.043,2.543 c -0.598,-2.648 -3,-7.133 -9.75,-7.133 -5.129,0 -10.902,3.676 -10.902,11.715 0,7.184 5.25,11.34 11.007,11.34 6.637,0 9.286,-4.426 10.043,-7.18 l 8.153,2.32 c -1.246,5.286 -6.313,13.387 -18.196,13.387 -11.007,0 -19.867,-7.933 -19.867,-19.867" /><path
         id="path98"
         style="fill:#e1251b;fill-opacity:1;fill-rule:nonzero;stroke:none"
         d="m 644.43,234.703 h -14.789 l -2.754,7.774 h -9 l 14.414,-38.25 h 9.879 l 14.25,38.25 h -9.246 z m -12,-7.777 h 9.285 l -4.59,-13.223 z" /><path
         id="path100"
         style="fill:#e1251b;fill-opacity:1;fill-rule:nonzero;stroke:none"
         d="M 685.453,242.477 669.691,217.32 v 25.157 h -8.476 v -38.274 h 10.363 l 14.363,23.266 v -23.266 h 8.528 v 38.274 z" /><path
         id="path102"
         style="fill:#e1251b;fill-opacity:1;fill-rule:nonzero;stroke:none"
         d="m 720.008,212.355 v 30.122 h -8.535 v -30.122 h -11.77 v -8.152 h 32.125 v 8.152 z" /><path
         id="path104"
         style="fill:#e1251b;fill-opacity:1;fill-rule:nonzero;stroke:none"
         d="m 753.75,203.391 c 10.746,0 19.867,7.832 19.867,19.972 0,12.145 -9.121,19.922 -19.867,19.922 -10.746,0 -19.926,-7.785 -19.926,-19.922 0,-12.133 9.125,-19.972 19.918,-19.972 m 0,31.5 c 5.297,0 11.02,-3.563 11.02,-11.547 0,-7.989 -5.723,-11.606 -11.02,-11.606 -5.293,0 -11.062,3.617 -11.062,11.606 0,7.984 5.722,11.547 11.062,11.547" /><path
         id="path106"
         style="fill:#e1251b;fill-opacity:1;fill-rule:nonzero;stroke:none"
         d="M 804.27,242.477 788.504,217.32 v 25.157 h -8.473 v -38.274 h 10.364 l 14.363,23.266 v -23.266 h 8.527 v 38.274 z" /><path
         id="path108"
         style="fill:#e1251b;fill-opacity:1;fill-rule:nonzero;stroke:none"
         d="m 490.898,307.266 v -38.25 h 13.852 c 11.496,0 19.223,7.343 19.223,19.164 0,11.82 -7.727,19.109 -19.274,19.109 z m 13.5,-8.039 c 5.887,0 10.688,-3.403 10.688,-11.071 0,-7.664 -4.801,-11.121 -10.688,-11.121 h -4.964 v 22.215 z" /><path
         id="path110"
         style="fill:#e1251b;fill-opacity:1;fill-rule:nonzero;stroke:none"
         d="m 530.527,307.266 v -38.27 h 24.235 v 8.039 h -15.707 v 7.289 h 14.25 v 7.508 h -14.25 v 7.336 h 15.765 v 8.098 z" /><path
         id="path112"
         style="fill:#e1251b;fill-opacity:1;fill-rule:nonzero;stroke:none"
         d="m 596.602,268.996 h 9.07 l -13.981,38.27 h -8.804 l -14.035,-38.27 h 9.39 l 9.235,26.938 z" /><path
         id="path114"
         style="fill:#e1251b;fill-opacity:1;fill-rule:nonzero;stroke:none"
         d="m 630,299.496 h -14.828 l -2.75,7.77 h -8.965 l 14.414,-38.25 h 9.879 l 14.25,38.25 h -9.285 z m -12,-7.746 h 9.285 l -4.59,-13.223 z" /><path
         id="path116"
         style="fill:#e1251b;fill-opacity:1;fill-rule:nonzero;stroke:none"
         d="m 645.238,293.453 v -24.457 h 8.528 v 23.75 c 0,4.645 2.597,6.969 6.64,6.969 4.043,0 6.645,-2.324 6.645,-6.969 v -23.75 h 8.527 v 24.457 c 0,9.606 -6.75,14.676 -15.172,14.676 -8.422,0 -15.168,-5.07 -15.168,-14.676" /><path
         id="path118"
         style="fill:#e1251b;fill-opacity:1;fill-rule:nonzero;stroke:none"
         d="m 683.836,307.266 v -38.25 h 13.875 c 11.496,0 19.215,7.343 19.215,19.164 0,11.82 -7.719,19.109 -19.27,19.109 z m 13.5,-8.039 c 5.879,0 10.687,-3.403 10.687,-11.071 0,-7.664 -4.808,-11.121 -10.687,-11.121 h -4.973 v 22.215 z" /></g></g></svg>