<?xml version="1.0" encoding="UTF-8" standalone="no"?>
<svg
   xmlns:dc="http://purl.org/dc/elements/1.1/"
   xmlns:cc="http://creativecommons.org/ns#"
   xmlns:rdf="http://www.w3.org/1999/02/22-rdf-syntax-ns#"
   xmlns:svg="http://www.w3.org/2000/svg"
   xmlns="http://www.w3.org/2000/svg"
   viewBox="0 0 1911.4001 1442.2"
   height="1442.2"
   width="1911.4001"
   xml:space="preserve"
   id="svg2"
   version="1.1"><metadata
     id="metadata8"><rdf:RDF><cc:Work
         rdf:about=""><dc:format>image/svg+xml</dc:format><dc:type
           rdf:resource="http://purl.org/dc/dcmitype/StillImage" /></cc:Work></rdf:RDF></metadata><defs
     id="defs6" /><g
     transform="matrix(1.3333333,0,0,1.3333333,0,4.055001e-6)"
     id="g10"><g
       id="g12"><path
         id="path14"
         style="fill:#da291c;fill-opacity:1;fill-rule:nonzero;stroke:none"
         d="m 1062.977,819.375 h -251.25 v 76.875 h 174.375 l 0.222,4.051 c -23.472,66.898 -77.324,105.523 -162.301,105.523 -98.097,0 -172.125,-78.676 -172.125,-178.125 0,-103.426 77.028,-185.023 179.25,-185.023 78.301,0 134.102,38.398 165.75,107.097 l 72.079,-33.222 C 1024.426,620.102 939.977,567 831.148,567 686.176,567 572.625,681.523 572.625,827.773 c 0,142.352 110.477,253.875 251.477,253.875 73.574,0 129.148,-29.699 169.273,-76.046 l 7.199,57.898 h 62.477 V 819.375 Z" /><path
         id="path16"
         style="fill:#da291c;fill-opacity:1;fill-rule:nonzero;stroke:none"
         d="M 1062.977,403.199 H 665.625 V 276.375 h 351.602 V 202.801 H 665.625 V 75.977 h 397.352 V 0.449 H 584.625 v 478.278 h 478.352 z" /><path
         id="path18"
         style="fill:#da291c;fill-opacity:1;fill-rule:nonzero;stroke:none"
         d="M 396.676,198.074 H 80.926 V 0.375 H 0 V 478.727 H 80.926 V 274.352 h 315.75 v 204.375 h 81.676 V 0.375 h -81.676 z" /><path
         id="path20"
         style="fill:#da291c;fill-opacity:1;fill-rule:nonzero;stroke:none"
         d="M 279.676,987.148 V 661.273 H 478.352 V 585.074 H 0 v 76.199 H 198.676 V 987.148 H 0 v 76.278 h 478.352 v -76.278 z" /><path
         id="path22"
         style="fill:#da291c;fill-opacity:1;fill-rule:nonzero;stroke:none"
         d="m 1263.523,0 h 30.75 l -47.472,129.977 h -29.852 L 1169.324,0 h 31.875 l 31.352,91.426 z" /><path
         id="path24"
         style="fill:#da291c;fill-opacity:1;fill-rule:nonzero;stroke:none"
         d="M 1321.199,129.977 V 0 h 47.102 c 39.074,0 65.25,24.898 65.25,65.102 0,40.199 -26.176,64.875 -65.403,64.875 z m 45.903,-27.301 c 19.949,0 36.296,-11.551 36.296,-37.574 0,-26.028 -16.273,-37.727 -36.296,-37.727 h -16.875 v 75.301 z" /></g></g></svg>