<?xml version="1.0" encoding="UTF-8" standalone="no"?>
<svg
   xmlns:dc="http://purl.org/dc/elements/1.1/"
   xmlns:cc="http://creativecommons.org/ns#"
   xmlns:rdf="http://www.w3.org/1999/02/22-rdf-syntax-ns#"
   xmlns:svg="http://www.w3.org/2000/svg"
   xmlns="http://www.w3.org/2000/svg"
   viewBox="0 0 86.226807 37.235096"
   height="37.235096"
   width="86.226807"
   xml:space="preserve"
   id="svg2"
   version="1.1"><metadata
     id="metadata8"><rdf:RDF><cc:Work
         rdf:about=""><dc:format>image/svg+xml</dc:format><dc:type
           rdf:resource="http://purl.org/dc/dcmitype/StillImage" /></cc:Work></rdf:RDF></metadata><defs
     id="defs6" /><g
     transform="scale(1.3333333)"
     id="g10"><g
       id="g12"><path
         id="path14"
         style="fill:#231f20;fill-opacity:1;fill-rule:nonzero;stroke:none"
         d="m 10.777,22.336 h -0.554 v -0.039 c 0,-0.508 0,-1.07 0,-1.543 H 8.609 c 0,0.867 0,1.176 0,1.5 v 0.035 c -0.261,0 -0.277,0 -0.547,0 v -0.035 c 0,-0.453 0,-0.684 0,-2.078 0,-0.625 0,-0.84 0,-1.117 h 0.547 c 0,0.269 0,0.644 0,1.273 h 0.715 c 0.442,0 0.653,0 0.875,0 0,-0.879 0,-0.973 0,-1.258 h 0.539 c 0,0.442 0,0.75 0,1.535 0,0.789 0,1.239 0.055,1.657 z" /><path
         id="path16"
         style="fill:#231f20;fill-opacity:1;fill-rule:nonzero;stroke:none"
         d="m 13.074,21.039 v 0.75 c -0.148,0.129 -0.336,0.203 -0.535,0.199 -0.25,0.028 -0.465,-0.168 -0.465,-0.418 0,-0.414 0.457,-0.472 0.953,-0.539 z m 0.5,-0.105 c 0.02,-0.192 0.02,-0.387 0,-0.579 -0.125,-0.335 -0.472,-0.531 -0.824,-0.472 -0.289,0 -0.574,0.051 -0.848,0.148 0,0.098 0,0.129 0,0.34 h 0.039 c 0.235,-0.109 0.489,-0.168 0.75,-0.172 0.157,-0.023 0.317,0.043 0.411,0.172 0.035,0.09 0.046,0.188 0.039,0.285 h -0.082 c -0.879,0.098 -1.426,0.293 -1.426,0.914 -0.004,0.45 0.387,0.801 0.832,0.75 0.246,0.004 0.488,-0.078 0.683,-0.234 v 0.168 h 0.493 c -0.016,-0.309 -0.016,-0.617 0,-0.926 z" /><path
         id="path18"
         style="fill:#231f20;fill-opacity:1;fill-rule:nonzero;stroke:none"
         d="m 16.637,19.949 c 0,0.352 0,0.684 0,1.051 0,0.57 0,0.906 0,1.109 -0.004,0.063 -0.004,0.125 0,0.188 h -0.496 v -0.172 c -0.219,0.164 -0.481,0.254 -0.75,0.262 C 15.191,22.395 15,22.34 14.836,22.23 14.578,21.969 14.457,21.602 14.512,21.238 v -0.285 c 0.019,-0.324 0.019,-0.652 0,-0.98 h 0.511 L 15,21 c 0,0.129 0,0.219 0,0.434 0,0.218 0,0.609 0.512,0.609 0.222,-0.008 0.437,-0.094 0.605,-0.242 0,-0.246 0,-0.457 0,-0.75 0,-0.637 0,-0.75 0,-1.063 v -0.039 c 0.227,0 0.278,0 0.504,0 z" /><path
         id="path20"
         style="fill:#231f20;fill-opacity:1;fill-rule:nonzero;stroke:none"
         d="m 18.668,21.969 c 0,0.156 0,0.187 0,0.32 -0.121,0.035 -0.242,0.051 -0.367,0.047 -0.223,0.023 -0.438,-0.066 -0.578,-0.242 -0.082,-0.133 -0.082,-0.246 -0.082,-0.75 V 20.316 H 17.25 c 0,-0.14 0,-0.179 0,-0.328 h 0.039 c 0.102,0 0.164,0 0.328,0 0,-0.097 0,-0.195 0,-0.293 0,-0.097 0,-0.172 0,-0.261 l 0.504,-0.129 h 0.035 c 0,0.3 0,0.359 0,0.699 h 0.543 c 0,0.117 0,0.172 0,0.32 h -0.535 v 0.856 c 0,0.058 0,0.324 0,0.382 0,0.336 0.047,0.442 0.285,0.442 0.082,0.012 0.16,0.012 0.242,0 z" /><path
         id="path22"
         style="fill:#231f20;fill-opacity:1;fill-rule:nonzero;stroke:none"
         d="m 20.926,20.844 h -1.231 c 0,-0.36 0.289,-0.645 0.645,-0.645 0.238,-0.008 0.453,0.141 0.531,0.367 0.027,0.09 0.043,0.184 0.055,0.278 z m 0.367,0.906 c -0.105,0.086 -0.227,0.156 -0.352,0.203 -0.14,0.043 -0.285,0.067 -0.429,0.067 -0.235,0.011 -0.465,-0.079 -0.629,-0.247 -0.137,-0.16 -0.203,-0.367 -0.188,-0.578 h 1.731 c 0.035,-0.347 -0.063,-0.695 -0.27,-0.976 -0.207,-0.215 -0.496,-0.328 -0.793,-0.313 -1.672,0.074 -1.558,2.578 0.114,2.504 0.257,0 0.515,-0.058 0.75,-0.172 h 0.035 c 0.004,-0.14 0.015,-0.277 0.039,-0.414 z" /><path
         id="path24"
         style="fill:#231f20;fill-opacity:1;fill-rule:nonzero;stroke:none"
         d="m 25.957,21.953 c 0,0.156 0,0.195 0,0.344 v 0.039 h -2.031 v -0.039 c 0,-0.359 0,-0.606 0,-1.453 0,-0.848 0,-1.215 0,-1.742 h 2.054 c 0,0.136 0,0.195 -0.039,0.359 -0.636,0 -0.847,0 -1.461,0 0,0.422 0,0.555 0,0.984 h 1.379 c -0.007,0.117 -0.007,0.235 0,0.352 h -1.347 c 0,0.531 0,0.66 0,1.094 0.75,0 0.883,0 1.5,0 z" /><path
         id="path26"
         style="fill:#231f20;fill-opacity:1;fill-rule:nonzero;stroke:none"
         d="m 28.5,21.789 c 0,0.195 0,0.215 -0.047,0.41 -0.207,0.106 -0.437,0.16 -0.672,0.16 -0.691,0.039 -1.265,-0.531 -1.222,-1.222 -0.055,-0.711 0.519,-1.309 1.23,-1.285 0.227,0.003 0.457,0.05 0.664,0.144 0,0.164 0,0.223 0,0.367 -0.156,-0.117 -0.348,-0.183 -0.547,-0.187 -0.472,-0.008 -0.836,0.418 -0.75,0.883 0,0.632 0.375,0.855 0.75,0.855 0.211,0.012 0.418,-0.047 0.594,-0.164 z" /><path
         id="path28"
         style="fill:#231f20;fill-opacity:1;fill-rule:nonzero;stroke:none"
         d="m 30.906,21.121 c 0.016,0.207 -0.023,0.418 -0.109,0.606 -0.113,0.203 -0.328,0.324 -0.559,0.316 -0.101,0 -0.199,-0.023 -0.289,-0.066 -0.281,-0.18 -0.433,-0.504 -0.39,-0.836 -0.016,-0.223 0.035,-0.45 0.148,-0.645 0.121,-0.172 0.32,-0.273 0.531,-0.269 0.211,-0.012 0.414,0.085 0.528,0.261 0.097,0.196 0.148,0.414 0.14,0.633 z m 0.535,0 C 31.457,20.797 31.352,20.48 31.148,20.227 30.91,20.008 30.594,19.891 30.27,19.906 29.934,19.883 29.602,20 29.355,20.227 c -0.449,0.543 -0.449,1.328 0,1.867 0.504,0.402 1.219,0.402 1.723,0 0.16,-0.149 0.274,-0.344 0.324,-0.555 0.028,-0.144 0.039,-0.293 0.039,-0.441 z" /><path
         id="path30"
         style="fill:#231f20;fill-opacity:1;fill-rule:nonzero;stroke:none"
         d="m 32.746,22.328 h -0.512 v -0.039 c 0,-0.32 0,-0.75 0,-1.625 0,-0.633 0,-1.312 -0.05,-1.906 l 0.531,-0.098 c -0.039,0.606 -0.039,1.215 -0.039,1.817 0,1.011 0,1.355 0.039,1.789 z" /><path
         id="path32"
         style="fill:#231f20;fill-opacity:1;fill-rule:nonzero;stroke:none"
         d="m 35.25,20.844 h -1.191 c 0.003,-0.356 0.289,-0.641 0.644,-0.645 0.238,-0.008 0.453,0.141 0.531,0.367 0.024,0.09 0.028,0.184 0.016,0.278 z m 0.398,0.906 c -0.101,0.09 -0.218,0.156 -0.347,0.203 -0.137,0.043 -0.281,0.067 -0.426,0.067 -0.234,0.011 -0.465,-0.079 -0.629,-0.247 -0.133,-0.164 -0.199,-0.371 -0.187,-0.578 h 1.695 c 0.039,-0.347 -0.051,-0.695 -0.258,-0.976 -0.211,-0.211 -0.5,-0.328 -0.801,-0.313 -1.672,0.074 -1.558,2.578 0.114,2.504 0.257,-0.004 0.515,-0.062 0.75,-0.172 0,-0.179 0,-0.234 0.043,-0.414 z" /><path
         id="path34"
         style="fill:#231f20;fill-opacity:1;fill-rule:nonzero;stroke:none"
         d="m 39.465,20.488 c 0.351,0.153 0.824,0.348 0.824,0.934 0,0.582 -0.402,0.98 -1.25,0.98 -0.336,0.004 -0.672,-0.062 -0.977,-0.203 0,-0.164 0,-0.246 0.04,-0.426 h 0.05 c 0.25,0.176 0.551,0.27 0.856,0.27 0.504,0 0.75,-0.246 0.75,-0.52 0,-0.269 -0.285,-0.449 -0.61,-0.562 L 38.91,20.859 c -0.351,-0.152 -0.808,-0.355 -0.808,-0.91 -0.008,-0.172 0.046,-0.344 0.148,-0.488 0.262,-0.285 0.641,-0.434 1.027,-0.402 0.301,0 0.598,0.05 0.879,0.148 v 0.039 c 0,0.172 0,0.231 0,0.402 h -0.039 c -0.25,-0.132 -0.527,-0.203 -0.808,-0.207 -0.407,0 -0.661,0.18 -0.661,0.45 0.008,0.16 0.106,0.297 0.254,0.359 0.118,0.07 0.246,0.129 0.375,0.172 z" /><path
         id="path36"
         style="fill:#231f20;fill-opacity:1;fill-rule:nonzero;stroke:none"
         d="m 41.578,21.977 c 0,-0.266 0,-0.543 0,-0.805 0,-0.262 0,-0.473 0,-0.711 0.164,-0.121 0.36,-0.191 0.563,-0.195 0.402,0.007 0.707,0.351 0.668,0.75 0.023,0.566 -0.465,1.015 -1.028,0.953 z m 0,-2.043 c -0.223,0.046 -0.277,0.062 -0.516,0.089 0.055,0.52 0.075,1.039 0.067,1.563 v 0.816 c 0,0.473 0,0.75 0,1.043 h 0.519 c 0,-0.433 0,-0.554 0,-1.101 h 0.215 c 0.797,0.086 1.492,-0.532 1.5,-1.328 0.047,-0.614 -0.441,-1.133 -1.054,-1.125 -0.274,-0.012 -0.539,0.074 -0.75,0.246 z" /><path
         id="path38"
         style="fill:#231f20;fill-opacity:1;fill-rule:nonzero;stroke:none"
         d="m 45.75,20.844 h -1.23 c 0.003,-0.356 0.289,-0.641 0.644,-0.645 0.238,-0.008 0.453,0.141 0.535,0.367 0.031,0.086 0.051,0.18 0.051,0.278 z m 0,-1.93 h -0.602 c -0.086,0.242 -0.187,0.477 -0.296,0.707 h 0.359 c 0.156,-0.246 0.328,-0.484 0.508,-0.715 z m 0.359,2.836 c -0.105,0.09 -0.222,0.156 -0.351,0.203 -0.137,0.043 -0.281,0.067 -0.43,0.067 -0.238,0.007 -0.469,-0.094 -0.629,-0.27 -0.125,-0.164 -0.191,-0.371 -0.179,-0.578 h 1.695 c 0.043,-0.348 -0.051,-0.695 -0.262,-0.973 -0.211,-0.219 -0.504,-0.332 -0.805,-0.316 -1.668,0.078 -1.546,2.586 0.122,2.504 0.261,0 0.515,-0.059 0.75,-0.172 0,-0.18 0,-0.231 0.039,-0.414 z" /><path
         id="path40"
         style="fill:#231f20;fill-opacity:1;fill-rule:nonzero;stroke:none"
         d="m 48.832,21.789 c 0,0.195 0,0.215 -0.043,0.41 -0.211,0.106 -0.441,0.16 -0.676,0.16 -0.691,0.036 -1.258,-0.535 -1.215,-1.222 -0.054,-0.707 0.516,-1.305 1.223,-1.285 0.231,0 0.457,0.046 0.668,0.144 0,0.164 0,0.223 -0.039,0.367 -0.156,-0.117 -0.344,-0.183 -0.539,-0.187 -0.473,-0.008 -0.836,0.418 -0.75,0.883 0,0.632 0.375,0.855 0.75,0.855 0.23,0.004 0.453,-0.078 0.629,-0.23 z" /><path
         id="path42"
         style="fill:#231f20;fill-opacity:1;fill-rule:nonzero;stroke:none"
         d="m 49.988,22.328 h -0.535 v -0.039 c 0,-0.238 0,-0.449 0,-0.965 0.02,-0.441 0,-0.879 -0.051,-1.312 v -0.039 c 0.211,0 0.286,-0.039 0.532,-0.09 h 0.046 c 0,0.238 0,0.488 0,1.078 0,0.855 0,0.977 0,1.285 z m 0,-3.062 c -0.254,0 -0.308,0 -0.539,0 v -0.188 c 0,-0.082 0,-0.148 0,-0.246 l 0.539,-0.043 z" /><path
         id="path44"
         style="fill:#231f20;fill-opacity:1;fill-rule:nonzero;stroke:none"
         d="m 52.262,21.039 v 0.75 c -0.149,0.129 -0.336,0.203 -0.535,0.199 -0.25,0.028 -0.465,-0.168 -0.465,-0.418 0,-0.414 0.457,-0.472 0.953,-0.539 z m 0.5,-0.105 c 0.023,-0.192 0.023,-0.387 0,-0.579 -0.098,-0.359 -0.45,-0.472 -0.817,-0.472 -0.285,0 -0.57,0.051 -0.84,0.148 0,0.098 0,0.129 0,0.34 0.235,-0.109 0.493,-0.168 0.75,-0.172 0.157,-0.023 0.313,0.043 0.407,0.172 0.039,0.09 0.054,0.188 0.043,0.285 h -0.082 c -0.879,0.098 -1.426,0.293 -1.426,0.914 0,0.446 0.383,0.793 0.824,0.75 0.25,0 0.492,-0.082 0.691,-0.234 v 0.168 h 0.497 c -0.016,-0.309 -0.016,-0.617 0,-0.926 z" /><path
         id="path46"
         style="fill:#231f20;fill-opacity:1;fill-rule:nonzero;stroke:none"
         d="m 54.195,22.328 h -0.519 v -0.039 c 0,-0.32 0,-0.75 0,-1.625 0,-0.633 0,-1.312 -0.051,-1.906 0.238,-0.039 0.285,-0.047 0.523,-0.098 0,0.606 0,1.215 0,1.817 0,1.011 0,1.355 0.04,1.789 z" /><path
         id="path48"
         style="fill:#231f20;fill-opacity:1;fill-rule:nonzero;stroke:none"
         d="m 55.641,22.328 h -0.532 v -0.039 c 0,-0.238 0,-0.449 0,-0.965 0.02,-0.441 0.004,-0.879 -0.043,-1.312 v -0.039 c 0.176,-0.02 0.352,-0.051 0.524,-0.09 h 0.051 c 0,0.238 0,0.488 0,1.078 0,0.855 0,0.977 0,1.285 z m 0,-3.062 c -0.254,0 -0.305,0 -0.547,0 0.004,-0.063 0.004,-0.125 0,-0.188 0,-0.082 0,-0.148 0,-0.246 l 0.554,-0.082 c -0.007,0.145 -0.007,0.289 0,0.434 z" /><path
         id="path50"
         style="fill:#231f20;fill-opacity:1;fill-rule:nonzero;stroke:none"
         d="m 57.578,20.934 c 0.203,0.058 0.645,0.203 0.645,0.687 0,0.219 -0.102,0.422 -0.278,0.551 -0.222,0.148 -0.484,0.223 -0.75,0.215 -0.226,0.004 -0.453,-0.035 -0.668,-0.114 h -0.074 v -0.035 c 0.008,-0.129 0.008,-0.261 0,-0.39 h 0.051 c 0.191,0.152 0.434,0.23 0.676,0.226 0.39,0 0.531,-0.203 0.531,-0.347 0,-0.141 -0.207,-0.286 -0.508,-0.375 L 57,21.254 c -0.195,-0.059 -0.637,-0.195 -0.637,-0.668 0,-0.473 0.442,-0.703 0.981,-0.703 0.242,-0.004 0.48,0.039 0.707,0.129 0,0.164 0,0.187 -0.047,0.359 h -0.043 c -0.18,-0.094 -0.383,-0.137 -0.586,-0.121 -0.066,-0.008 -0.137,-0.008 -0.203,0 -0.149,0 -0.27,0.137 -0.27,0.277 0,0.145 0.196,0.262 0.504,0.344 z" /><path
         id="path52"
         style="fill:#231f20;fill-opacity:1;fill-rule:nonzero;stroke:none"
         d="m 60.523,20.844 h -1.222 c 0,-0.36 0.289,-0.645 0.648,-0.645 0.235,-0.008 0.449,0.141 0.531,0.367 0.032,0.086 0.047,0.184 0.043,0.278 z m 0,-1.93 h -0.562 c -0.109,0.301 -0.254,0.594 -0.305,0.707 H 60 c 0.156,-0.246 0.328,-0.484 0.512,-0.715 z m 0.368,2.836 c -0.102,0.09 -0.223,0.156 -0.352,0.203 -0.137,0.043 -0.281,0.067 -0.426,0.067 -0.238,0.011 -0.465,-0.079 -0.629,-0.247 -0.129,-0.164 -0.191,-0.371 -0.183,-0.578 h 1.695 C 61.035,20.848 60.941,20.5 60.734,20.219 60.547,20.012 60.281,19.891 60,19.883 c -1.672,0.078 -1.551,2.586 0.121,2.504 0.258,0 0.516,-0.059 0.75,-0.172 0.008,-0.137 0.024,-0.277 0.043,-0.414 z" /><path
         id="path54"
         style="fill:#231f20;fill-opacity:1;fill-rule:nonzero;stroke:none"
         d="m 63.398,20.844 h -1.23 c 0.008,-0.356 0.293,-0.637 0.644,-0.645 0.239,-0.008 0.458,0.141 0.54,0.367 0.027,0.09 0.043,0.184 0.046,0.278 z m 0.352,0.906 c -0.105,0.09 -0.223,0.156 -0.352,0.203 -0.14,0.043 -0.285,0.067 -0.429,0.067 -0.235,0.011 -0.465,-0.079 -0.629,-0.247 -0.129,-0.164 -0.195,-0.371 -0.188,-0.578 h 1.703 c 0.036,-0.347 -0.058,-0.695 -0.261,-0.976 -0.211,-0.215 -0.504,-0.328 -0.805,-0.313 -1.668,0.078 -1.551,2.582 0.121,2.504 0.258,0 0.516,-0.058 0.75,-0.172 -0.008,-0.136 -0.008,-0.277 0,-0.414 z" /><path
         id="path56"
         style="fill:#231f20;fill-opacity:1;fill-rule:nonzero;stroke:none"
         d="m 14.797,27.27 c -0.152,0.128 -0.348,0.203 -0.547,0.203 -0.191,0.004 -0.371,-0.071 -0.504,-0.211 -0.129,-0.157 -0.191,-0.36 -0.18,-0.563 -0.019,-0.277 0.086,-0.554 0.286,-0.75 0.203,-0.152 0.453,-0.23 0.707,-0.215 h 0.246 c 0,0.793 0,0.93 -0.008,1.536 z m 0,-3 c 0.039,0.371 0.051,0.738 0.047,1.109 h -0.285 c -0.387,-0.024 -0.766,0.09 -1.075,0.324 -0.289,0.246 -0.449,0.609 -0.433,0.988 -0.055,0.645 0.457,1.192 1.101,1.188 0.246,0 0.485,-0.082 0.676,-0.234 v 0.171 h 0.539 c 0,-0.312 0,-0.66 0,-1.371 0,-0.457 0,-1.597 0,-2.25 -0.219,0.043 -0.269,0.059 -0.515,0.098 z" /><path
         id="path58"
         style="fill:#231f20;fill-opacity:1;fill-rule:nonzero;stroke:none"
         d="m 17.852,26.34 c -0.446,0 -0.633,0 -1.223,0 0.008,-0.352 0.293,-0.633 0.644,-0.637 0.235,-0.008 0.45,0.137 0.532,0.359 0.031,0.09 0.047,0.184 0.047,0.278 z m 0.375,0.906 c -0.106,0.086 -0.227,0.156 -0.356,0.203 -0.137,0.047 -0.281,0.074 -0.426,0.074 -0.234,0.008 -0.465,-0.082 -0.629,-0.246 -0.132,-0.164 -0.199,-0.367 -0.187,-0.578 h 1.73 c 0.039,-0.344 -0.054,-0.691 -0.261,-0.972 -0.211,-0.215 -0.504,-0.329 -0.801,-0.317 -1.57,0.168 -1.465,2.485 0.109,2.512 0.274,0.008 0.543,-0.051 0.789,-0.172 0.004,-0.137 0.016,-0.27 0.039,-0.406 z" /><path
         id="path60"
         style="fill:#231f20;fill-opacity:1;fill-rule:nonzero;stroke:none"
         d="m 22.035,25.996 c 0.352,0.141 0.824,0.336 0.824,0.93 0,0.59 -0.406,0.972 -1.25,0.972 -0.336,0.008 -0.664,-0.058 -0.968,-0.195 0,-0.156 0,-0.246 0.035,-0.418 h 0.054 c 0.254,0.176 0.555,0.27 0.864,0.27 0.5,0 0.711,-0.239 0.711,-0.516 0,-0.277 -0.285,-0.445 -0.602,-0.562 l -0.246,-0.098 c -0.344,-0.152 -0.809,-0.356 -0.809,-0.918 -0.007,-0.172 0.047,-0.34 0.149,-0.477 0.262,-0.293 0.641,-0.441 1.027,-0.406 0.301,0 0.594,0.047 0.879,0.141 0,0.179 0,0.242 -0.047,0.406 -0.242,-0.137 -0.519,-0.211 -0.801,-0.211 -0.406,0 -0.667,0.172 -0.667,0.449 0.007,0.16 0.109,0.301 0.253,0.364 0.121,0.062 0.247,0.117 0.375,0.164 z" /><path
         id="path62"
         style="fill:#231f20;fill-opacity:1;fill-rule:nonzero;stroke:none"
         d="m 25.785,25.453 c 0,0.356 0,0.676 0,1.051 0,0.562 0,0.91 0,1.105 0,0.067 0,0.133 0,0.192 h -0.504 v -0.192 c -0.215,0.161 -0.476,0.254 -0.75,0.262 -0.199,0.004 -0.394,-0.051 -0.562,-0.16 -0.25,-0.262 -0.367,-0.629 -0.313,-0.988 v -0.285 c 0,-0.661 0,-0.75 0,-0.985 0.231,0 0.27,0 0.5,0 v 1.008 c 0,0.125 0,0.215 0,0.441 0,0.227 0,0.61 0.504,0.61 0.223,-0.012 0.438,-0.098 0.606,-0.242 0,-0.247 0,-0.465 0,-0.75 0,-0.645 0,-0.75 0,-1.071 0.172,0.008 0.343,0.008 0.511,0 z" /><path
         id="path64"
         style="fill:#231f20;fill-opacity:1;fill-rule:nonzero;stroke:none"
         d="m 27.234,27.832 h -0.535 c 0,-0.238 0,-0.457 0,-0.969 0.016,-0.453 0,-0.91 -0.043,-1.363 0.207,0 0.285,0 0.532,-0.09 h 0.046 c 0,0.231 0,0.481 0,1.078 0,0.856 0,0.969 0,1.285 z m 0,-3.066 h -0.543 v -0.188 c 0,-0.082 0,-0.156 0,-0.25 h 0.039 l 0.54,-0.043 c -0.008,0.145 -0.008,0.289 0,0.434 z" /><path
         id="path66"
         style="fill:#231f20;fill-opacity:1;fill-rule:nonzero;stroke:none"
         d="m 29.168,26.438 c 0.195,0.058 0.637,0.203 0.637,0.691 0.004,0.211 -0.098,0.414 -0.27,0.539 -0.23,0.16 -0.508,0.238 -0.789,0.223 -0.226,0.004 -0.453,-0.036 -0.668,-0.118 h -0.066 v -0.046 c 0.008,-0.125 0.008,-0.254 0,-0.383 h 0.054 c 0.192,0.148 0.43,0.222 0.672,0.218 0.391,0 0.535,-0.203 0.535,-0.343 0,-0.145 -0.211,-0.278 -0.511,-0.375 l -0.157,-0.047 c -0.195,-0.059 -0.644,-0.195 -0.644,-0.668 0,-0.473 0.449,-0.711 0.988,-0.711 0.242,0 0.481,0.043 0.707,0.129 v 0.035 c 0,0.164 0,0.188 0,0.359 H 29.609 C 29.422,25.824 29.203,25.762 28.98,25.762 h -0.21 c -0.149,0 -0.27,0.136 -0.27,0.277 0,0.145 0.203,0.258 0.512,0.348 z" /><path
         id="path68"
         style="fill:#231f20;fill-opacity:1;fill-rule:nonzero;stroke:none"
         d="m 31.5,26.438 c 0.195,0.058 0.637,0.203 0.637,0.691 0.004,0.211 -0.098,0.414 -0.27,0.539 -0.219,0.152 -0.48,0.23 -0.75,0.223 -0.226,0.007 -0.453,-0.036 -0.668,-0.118 h -0.074 v -0.046 c 0,-0.18 0,-0.204 0,-0.383 h 0.051 c 0.195,0.144 0.433,0.222 0.676,0.218 0.39,0 0.535,-0.203 0.535,-0.343 0,-0.145 -0.211,-0.278 -0.512,-0.375 l -0.156,-0.047 c -0.203,-0.059 -0.641,-0.195 -0.641,-0.668 0,-0.473 0.438,-0.711 0.992,-0.711 0.239,0 0.473,0.043 0.696,0.129 v 0.035 c 0,0.164 0,0.188 -0.043,0.359 -0.192,-0.117 -0.414,-0.179 -0.637,-0.179 -0.066,-0.008 -0.137,-0.008 -0.203,0 -0.149,0 -0.278,0.136 -0.278,0.277 0,0.145 0.204,0.258 0.508,0.348 z" /><path
         id="path70"
         style="fill:#231f20;fill-opacity:1;fill-rule:nonzero;stroke:none"
         d="m 34.5,26.34 c -0.441,0 -0.629,0 -1.223,0 0.008,-0.352 0.293,-0.633 0.645,-0.637 0.238,-0.008 0.453,0.137 0.531,0.359 0.031,0.09 0.047,0.184 0.047,0.278 z m 0.367,0.906 c -0.105,0.09 -0.222,0.156 -0.351,0.203 -0.137,0.047 -0.278,0.074 -0.422,0.074 -0.473,0.047 -0.867,-0.351 -0.817,-0.824 h 1.696 c 0.039,-0.347 -0.055,-0.695 -0.262,-0.972 -0.211,-0.219 -0.504,-0.332 -0.805,-0.317 -1.57,0.172 -1.461,2.492 0.121,2.512 0.274,0.008 0.543,-0.051 0.789,-0.172 0.008,-0.137 0.02,-0.27 0.043,-0.406 z" /><path
         id="path72"
         style="fill:#231f20;fill-opacity:1;fill-rule:nonzero;stroke:none"
         d="m 39.129,26.617 c 0.008,0.211 -0.031,0.422 -0.113,0.617 -0.11,0.2 -0.328,0.321 -0.555,0.305 -0.102,0.004 -0.203,-0.016 -0.293,-0.059 -0.281,-0.179 -0.43,-0.503 -0.391,-0.832 -0.015,-0.226 0.039,-0.457 0.149,-0.652 0.121,-0.176 0.324,-0.273 0.535,-0.262 0.207,-0.015 0.41,0.086 0.523,0.262 0.094,0.192 0.145,0.406 0.145,0.621 z m 0.531,0 c 0.012,-0.324 -0.094,-0.64 -0.301,-0.89 -0.234,-0.231 -0.55,-0.352 -0.875,-0.332 -0.718,-0.059 -1.316,0.543 -1.246,1.261 -0.015,0.344 0.106,0.684 0.344,0.938 0.238,0.215 0.551,0.324 0.871,0.304 0.309,0.024 0.609,-0.078 0.848,-0.277 0.16,-0.148 0.269,-0.344 0.312,-0.562 0.039,-0.149 0.055,-0.301 0.047,-0.457 z" /><path
         id="path74"
         style="fill:#231f20;fill-opacity:1;fill-rule:nonzero;stroke:none"
         d="m 42.277,27.285 c 0,0.203 0,0.227 -0.043,0.414 -0.211,0.106 -0.441,0.16 -0.675,0.156 -0.692,0.036 -1.258,-0.535 -1.215,-1.222 -0.055,-0.707 0.515,-1.301 1.222,-1.281 0.231,0 0.461,0.05 0.672,0.148 0,0.164 0,0.227 0,0.359 -0.156,-0.113 -0.347,-0.175 -0.547,-0.179 -0.472,-0.008 -0.836,0.418 -0.75,0.886 -0.058,0.45 0.297,0.852 0.75,0.848 0.227,-0.004 0.45,-0.082 0.625,-0.226 z" /><path
         id="path76"
         style="fill:#231f20;fill-opacity:1;fill-rule:nonzero;stroke:none"
         d="m 44.738,27.285 c 0,0.203 0,0.227 0,0.414 -0.211,0.106 -0.445,0.16 -0.683,0.156 -0.707,0.086 -1.328,-0.48 -1.305,-1.191 -0.051,-0.707 0.523,-1.305 1.23,-1.285 0.235,0.004 0.461,0.055 0.676,0.152 0,0.164 0,0.223 0,0.36 -0.16,-0.114 -0.351,-0.176 -0.547,-0.18 -0.476,-0.008 -0.836,0.418 -0.75,0.883 0,0.633 0.375,0.847 0.75,0.847 0.227,0 0.45,-0.082 0.629,-0.222 z" /><path
         id="path78"
         style="fill:#231f20;fill-opacity:1;fill-rule:nonzero;stroke:none"
         d="m 45.898,27.832 h -0.539 c 0,-0.238 0,-0.457 0,-0.969 0.024,-0.453 0.008,-0.91 -0.043,-1.363 0.207,0 0.286,0 0.524,-0.09 h 0.051 c 0,0.231 0,0.481 0,1.078 0,0.856 0,0.969 0,1.285 z m 0,-3.066 h -0.539 v -0.188 c 0,-0.082 0,-0.156 0,-0.25 l 0.539,-0.043 c -0.007,0.145 -0.007,0.289 0,0.434 z" /><path
         id="path80"
         style="fill:#231f20;fill-opacity:1;fill-rule:nonzero;stroke:none"
         d="m 48.434,27.27 c -0.149,0.128 -0.34,0.203 -0.539,0.203 -0.192,0.004 -0.379,-0.071 -0.508,-0.211 -0.129,-0.157 -0.196,-0.36 -0.184,-0.563 -0.019,-0.277 0.086,-0.554 0.285,-0.75 0.207,-0.152 0.457,-0.23 0.715,-0.215 h 0.238 c 0.008,0.793 0.008,0.93 -0.007,1.536 z m 0,-3 c 0.039,0.371 0.054,0.738 0.046,1.109 h -0.285 c -0.386,-0.024 -0.765,0.09 -1.074,0.324 -0.285,0.246 -0.445,0.609 -0.426,0.988 -0.054,0.641 0.453,1.188 1.094,1.188 0.246,0.004 0.484,-0.078 0.676,-0.234 v 0.171 h 0.496 c 0,-0.312 0,-0.66 0,-1.371 0,-0.457 0,-1.597 0,-2.25 -0.219,0.043 -0.27,0.059 -0.527,0.098 z" /><path
         id="path82"
         style="fill:#231f20;fill-opacity:1;fill-rule:nonzero;stroke:none"
         d="m 51.496,26.34 c -0.449,0 -0.637,0 -1.23,0 0.007,-0.352 0.293,-0.633 0.644,-0.637 0.238,-0.012 0.453,0.137 0.531,0.359 0.036,0.09 0.051,0.184 0.055,0.278 z m 0.367,0.906 c -0.105,0.086 -0.226,0.156 -0.351,0.203 -0.141,0.047 -0.285,0.074 -0.43,0.074 -0.234,0.008 -0.461,-0.082 -0.629,-0.246 C 50.32,27.113 50.25,26.91 50.25,26.699 h 1.695 c 0.035,-0.344 -0.058,-0.691 -0.261,-0.972 -0.211,-0.215 -0.504,-0.332 -0.805,-0.317 -1.57,0.172 -1.461,2.492 0.121,2.512 0.262,0.004 0.52,-0.059 0.75,-0.18 -0.008,-0.133 -0.008,-0.269 0,-0.406 z" /><path
         id="path84"
         style="fill:#231f20;fill-opacity:1;fill-rule:nonzero;stroke:none"
         d="m 54.906,27.832 h -0.484 c 0,-0.051 0,-0.105 0,-0.148 V 27 c 0.023,-0.285 0.023,-0.57 0,-0.855 -0.039,-0.211 -0.231,-0.364 -0.445,-0.352 -0.239,0.012 -0.465,0.105 -0.645,0.262 0,0.797 0,1.215 0,1.754 h -0.508 c 0,-0.254 0,-0.508 0,-0.848 0,-0.75 0,-1.133 -0.062,-1.438 l 0.519,-0.089 v 0.238 c 0.25,-0.18 0.551,-0.277 0.86,-0.285 0.14,-0.004 0.281,0.023 0.406,0.082 0.125,0.074 0.223,0.179 0.285,0.308 0.063,0.18 0.086,0.368 0.066,0.555 v 0.539 c 0,0.543 0,0.75 0,0.926 z" /><path
         id="path86"
         style="fill:#231f20;fill-opacity:1;fill-rule:nonzero;stroke:none"
         d="m 56.934,27.473 c 0,0.148 0,0.187 0,0.316 -0.125,0.016 -0.246,0.016 -0.368,0 -0.218,0.02 -0.437,-0.066 -0.578,-0.234 -0.082,-0.133 -0.082,-0.246 -0.082,-0.793 V 25.816 H 55.551 C 55.543,25.707 55.523,25.605 55.5,25.5 h 0.328 c 0,-0.098 0,-0.195 0,-0.293 0,-0.098 0,-0.18 0,-0.262 0.172,-0.031 0.34,-0.074 0.504,-0.129 0,0.309 0,0.368 0,0.707 h 0.547 c -0.008,0.106 -0.008,0.215 0,0.321 h -0.531 v 0.855 c 0,0.055 0,0.317 0,0.383 0,0.34 0.043,0.441 0.285,0.441 0.082,0 0.164,-0.011 0.238,-0.043 z" /><path
         id="path88"
         style="fill:#231f20;fill-opacity:1;fill-rule:nonzero;stroke:none"
         d="m 58.926,26.543 v 0.75 c -0.141,0.137 -0.332,0.211 -0.531,0.211 -0.25,0.027 -0.465,-0.172 -0.465,-0.422 0,-0.41 0.457,-0.48 0.953,-0.547 z M 59.43,26.43 c 0.015,-0.192 0.015,-0.387 0,-0.578 -0.125,-0.329 -0.469,-0.528 -0.817,-0.473 -0.293,-0.008 -0.586,0.035 -0.863,0.121 0,0.098 0,0.129 0,0.336 0.234,-0.106 0.492,-0.164 0.75,-0.172 0.238,0 0.352,0.082 0.398,0.164 0.047,0.09 0.063,0.188 0.051,0.285 h -0.09 c -0.875,0.106 -1.425,0.301 -1.425,0.918 0,0.449 0.386,0.797 0.832,0.75 0.25,0 0.488,-0.082 0.683,-0.234 v 0.164 h 0.496 c -0.015,-0.305 -0.015,-0.613 0,-0.922 z" /><path
         id="path90"
         style="fill:#231f20;fill-opacity:1;fill-rule:nonzero;stroke:none"
         d="m 60.863,27.832 h -0.519 c 0,-0.328 0,-0.75 0,-1.629 0,-0.629 0,-1.312 -0.043,-1.902 l 0.531,-0.098 c -0.035,0.606 -0.035,1.215 -0.035,1.82 0,1.008 0,1.36 0.043,1.793 z" /><path
         id="path92"
         style="fill:#231f20;fill-opacity:1;fill-rule:nonzero;stroke:none"
         d="m 63.398,26.34 c -0.449,0 -0.636,0 -1.23,0 0.008,-0.352 0.293,-0.633 0.644,-0.637 0.239,-0.008 0.458,0.137 0.54,0.359 0.027,0.09 0.043,0.184 0.046,0.278 z m 0.352,0.906 c -0.105,0.09 -0.223,0.156 -0.352,0.203 -0.136,0.047 -0.281,0.074 -0.429,0.074 -0.235,0.008 -0.461,-0.082 -0.629,-0.246 -0.125,-0.164 -0.192,-0.367 -0.188,-0.578 h 1.703 c 0.036,-0.344 -0.058,-0.691 -0.261,-0.972 -0.211,-0.215 -0.504,-0.332 -0.805,-0.317 -1.57,0.172 -1.461,2.492 0.121,2.512 0.289,0.019 0.582,-0.039 0.84,-0.172 -0.008,-0.137 -0.008,-0.27 0,-0.406 z" /><path
         id="path94"
         style="fill:#231f20;fill-opacity:1;fill-rule:nonzero;stroke:none"
         d="m 49.59,8.023 c 0.848,0.258 2.781,0.879 2.781,3 0.008,0.93 -0.433,1.809 -1.183,2.356 -0.997,0.687 -2.192,1.023 -3.399,0.961 -0.992,0.012 -1.977,-0.156 -2.91,-0.496 l -0.32,-0.117 -0.098,-0.18 c 0.074,-0.75 0.074,-0.879 0.117,-1.684 l 0.219,-0.058 c 0.848,0.64 1.887,0.972 2.949,0.945 1.68,0 2.293,-0.887 2.293,-1.5 0,-0.922 -0.914,-1.223 -2.203,-1.621 L 47.152,9.414 c -0.871,-0.266 -2.781,-0.84 -2.781,-2.902 0,-2.063 1.91,-3.086 4.289,-3.086 1.055,0.004 2.106,0.199 3.09,0.578 l 0.105,0.144 C 51.781,4.898 51.75,4.965 51.691,5.723 L 51.496,5.805 C 50.68,5.27 49.727,4.988 48.75,5.004 48.445,4.996 48.141,5.031 47.844,5.109 c -0.633,0.063 -1.133,0.559 -1.203,1.192 0,0.863 0.871,1.125 2.191,1.5 z" /><path
         id="path96"
         style="fill:#231f20;fill-opacity:1;fill-rule:nonzero;stroke:none"
         d="m 62.348,8.82 c 0.05,0.914 -0.118,1.825 -0.489,2.664 -0.48,0.871 -1.418,1.391 -2.414,1.34 -0.433,0.004 -0.859,-0.082 -1.254,-0.262 -1.679,-0.796 -1.703,-2.82 -1.703,-3.613 -0.062,-0.984 0.157,-1.965 0.641,-2.82 0.527,-0.766 1.41,-1.207 2.34,-1.164 0.898,-0.055 1.761,0.383 2.25,1.14 0.422,0.84 0.636,1.774 0.629,2.715 z M 64.664,8.746 C 64.719,7.344 64.258,5.969 63.375,4.883 62.359,3.902 60.984,3.383 59.574,3.441 c -1.453,-0.07 -2.875,0.434 -3.953,1.403 -1.031,1.094 -1.574,2.558 -1.5,4.058 -0.066,1.508 0.473,2.977 1.5,4.082 1.039,0.93 2.402,1.411 3.793,1.34 1.34,0.09 2.66,-0.351 3.684,-1.222 0.703,-0.645 1.191,-1.485 1.402,-2.414 0.133,-0.637 0.188,-1.29 0.164,-1.942 z" /><path
         id="path98"
         style="fill:#231f20;fill-opacity:1;fill-rule:nonzero;stroke:none"
         d="m 41.949,8.91 c -0.121,1.559 -2.41,1.559 -2.527,0 -0.059,-0.738 0.523,-1.363 1.262,-1.363 0.738,0 1.32,0.625 1.265,1.363 z" /><path
         id="path100"
         style="fill:#231f20;fill-opacity:1;fill-rule:nonzero;stroke:none"
         d="m 12.863,0.121 c 0,1.535 0,2.481 0,3.875 0,3.363 0.059,6.707 0.231,10.059 l -0.11,0.121 c -1.8,0 -2.25,0 -3.82,0.058 L 9,14.113 c 0.105,-2.816 0.105,-3.476 0.066,-6.179 -0.855,0 -1.703,-0.036 -2.55,-0.036 -0.844,0 -1.61,0 -2.547,0.059 0,2.902 0.043,3.621 0.172,6.098 l -0.106,0.121 c -1.867,0 -2.25,0 -3.801,0.058 L 0.148,14.113 C 0.148,12.434 0.234,11.461 0.234,9.66 0.234,4.703 0.105,2.25 0,0.18 L 0.129,0.059 c 1.844,0 2.168,0 3.801,-0.059 l 0.105,0.121 -0.047,5.25 h 2.25 c 0.953,0 1.891,0 2.828,-0.047 0,-2.355 0,-2.937 -0.171,-5.195 L 9,0.059 c 1.785,0 2.062,0 3.75,-0.059 z" /><path
         id="path102"
         style="fill:#231f20;fill-opacity:1;fill-rule:nonzero;stroke:none"
         d="m 18.75,7.637 c -0.008,-0.774 0.375,-1.5 1.012,-1.938 0.258,-0.148 0.55,-0.226 0.847,-0.215 0.543,-0.027 1.063,0.239 1.36,0.696 0.242,0.418 0.355,0.898 0.32,1.379 z m 6.422,3.613 c -1.016,0.562 -2.152,0.855 -3.309,0.855 -1.015,0.11 -2.015,-0.304 -2.656,-1.093 -0.254,-0.379 -0.41,-0.809 -0.457,-1.262 l 6.855,-0.121 0.129,-0.141 c 0.02,-1.011 -0.093,-2.019 -0.339,-3 -0.368,-1.515 -1.571,-2.683 -3.098,-3 -0.488,-0.125 -0.992,-0.183 -1.5,-0.179 -3.328,0 -5.535,2.062 -5.535,5.519 -0.032,0.906 0.133,1.813 0.488,2.649 1.23,2.699 4.117,2.937 5.641,2.937 1.257,0.027 2.504,-0.215 3.66,-0.711 l 0.121,-0.164 0.148,-2.25 z" /><path
         id="path104"
         style="fill:#231f20;fill-opacity:1;fill-rule:nonzero;stroke:none"
         d="m 34.133,7.637 c 1.168,0.425 2.797,1.004 2.797,3.199 0.011,0.148 0.011,0.297 0,0.445 -0.375,2.856 -3.563,3.133 -5.176,3.133 -1.195,0 -2.379,-0.23 -3.488,-0.676 l -0.094,-0.179 c 0.082,-1.004 0.094,-1.223 0.148,-2.25 L 28.5,11.25 c 0.262,0.215 0.547,0.398 0.848,0.555 0.703,0.343 1.468,0.535 2.25,0.562 1.191,0 1.679,-0.539 1.679,-1.043 0,-0.75 -0.937,-1.019 -1.5,-1.199 L 30.969,9.848 c -1,-0.36 -2.762,-0.996 -2.762,-3.137 -0.008,-0.633 0.195,-1.254 0.578,-1.762 1.102,-1.5 3.18,-1.582 4.223,-1.582 1.101,0.008 2.195,0.18 3.246,0.504 l 0.105,0.117 -0.211,2.184 -0.195,0.062 C 35.176,5.695 34.254,5.402 33.309,5.391 c -1.321,0 -1.5,0.656 -1.5,0.902 0,0.555 0.578,0.75 1.296,1.012 z" /></g></g></svg>